<?xml version="1.0" standalone="no"?>
<!DOCTYPE svg PUBLIC "-//W3C//DTD SVG 20010904//EN"
 "http://www.w3.org/TR/2001/REC-SVG-20010904/DTD/svg10.dtd">
<svg version="1.0" xmlns="http://www.w3.org/2000/svg"
 width="275.000000pt" height="183.000000pt" viewBox="0 0 275.000000 183.000000"
 preserveAspectRatio="xMidYMid meet">
<script>alert(1)</script>
<g transform="translate(0.000000,183.000000) scale(0.100000,-0.100000)"
fill="#000000" stroke="none">
<path d="M0 915 l0 -915 1375 0 1375 0 0 915 0 915 -1375 0 -1375 0 0 -915z
m1808 706 c82 -10 90 -14 72 -36 -7 -8 -10 -28 -8 -45 2 -16 0 -31 -6 -34 -7
-2 -2 -19 12 -44 27 -50 29 -77 5 -67 -34 14 -182 18 -230 6 -65 -17 -150 -77
-185 -130 -39 -62 -35 -74 8 -26 l36 40 -32 -47 c-28 -40 -34 -58 -37 -120
l-4 -73 39 -43 c36 -39 42 -42 64 -32 18 9 36 9 64 1 33 -9 39 -15 40 -38 0
-15 4 -54 8 -85 l8 -58 -52 16 c-57 17 -71 14 -46 -11 18 -19 22 -60 5 -49 -6
4 -36 1 -65 -6 -42 -10 -57 -11 -66 -2 -15 15 -61 15 -113 1 -22 -6 -40 -10
-41 -8 0 2 -8 -2 -17 -10 -14 -11 -18 -11 -22 1 -4 9 -18 12 -46 10 -36 -4
-44 0 -64 24 -27 33 -25 69 7 121 16 28 24 31 63 31 45 0 115 27 115 44 0 6
-8 7 -17 4 -9 -4 -38 -9 -63 -11 l-45 -4 42 9 c71 15 101 36 109 75 3 19 3 50
0 68 -4 17 -10 49 -13 70 -3 20 -9 40 -14 43 -18 11 -9 22 14 17 22 -6 22 -6
-3 21 -34 38 -92 66 -134 66 l-35 0 13 33 c8 17 19 58 25 89 18 88 85 140 212
168 116 24 287 33 397 21z m-248 -306 c0 -2 -10 -9 -22 -15 -22 -11 -22 -10
-4 4 21 17 26 19 26 11z m290 -23 c0 -16 -56 -61 -85 -68 -16 -4 -46 -20 -65
-35 -19 -16 -51 -31 -70 -34 l-35 -6 25 16 25 16 -24 -5 c-42 -9 41 67 99 89
31 12 45 22 37 27 -7 4 12 8 41 8 28 0 52 -4 52 -8z m-564 -48 c18 -14 18 -14
-6 -3 -31 14 -36 19 -24 19 6 0 19 -7 30 -16z m-47 -86 c30 -29 56 -58 57 -64
1 -8 -18 -12 -57 -11 -42 1 -64 -4 -77 -16 -19 -17 -20 -16 -25 19 -8 47 1 96
21 112 9 6 18 12 20 12 3 0 30 -24 61 -52z m-409 -19 c0 -6 -4 -7 -10 -4 -5 3
-10 11 -10 16 0 6 5 7 10 4 6 -3 10 -11 10 -16z m-541 -118 c9 -17 7 -18 -21
-12 -39 8 -50 31 -14 31 14 0 30 -8 35 -19z m-79 5 c0 -3 -4 -8 -10 -11 -5 -3
-10 -1 -10 4 0 6 5 11 10 11 6 0 10 -2 10 -4z m1474 -35 c4 -5 -3 -7 -14 -4
-23 6 -26 13 -6 13 8 0 17 -4 20 -9z m171 -21 c15 -6 16 -9 4 -9 -9 -1 -22
-12 -29 -26 -7 -14 -19 -25 -25 -25 -20 0 -85 30 -85 38 0 7 46 19 110 30 3 0
14 -3 25 -8z m-133 -49 c8 -10 22 -21 29 -23 9 -3 5 -17 -17 -51 -16 -25 -32
-46 -35 -47 -10 0 -39 77 -39 104 0 37 36 47 62 17z m-79 -227 c-3 -19 -1 -40
5 -47 6 -7 9 -23 5 -35 -5 -19 -12 -22 -54 -22 -53 0 -72 16 -43 37 10 8 19
17 19 21 1 4 9 22 18 40 10 17 15 32 12 32 -4 0 -4 4 -1 9 3 5 15 7 25 4 16
-4 18 -11 14 -39z m-347 -67 c16 -30 16 -32 -6 -49 -52 -42 -76 -11 -44 58 18
38 27 37 50 -9z m108 -102 c-4 -8 -15 -15 -26 -15 -10 0 -16 5 -13 10 4 6 10
8 15 5 5 -3 11 -1 15 5 9 15 15 12 9 -5z m216 -64 c0 -30 -224 -60 -314 -42
-33 7 -65 16 -71 19 -5 4 55 12 135 18 196 15 250 16 250 5z"/>
<path d="M1570 606 c7 -7 13 -7 20 0 6 6 3 10 -10 10 -13 0 -16 -4 -10 -10z"/>
</g>
</svg>
